# xmcd
#
# Track frame offsets: 
#        150
#        22421
#        43776
#        60008
#        78204
#        100539
#        120999
#        143456
#        163046
#        183957
#
# Disc length: 2722 seconds
#
# Revision: 1
# Processed by: cddbd v1.5.2PL0 Copyright (c) Steve Scherf et al.
# Submitted via: ExactAudioCopy v1.0b2
#
DISCID=6e0aa00a
DTITLE=Paul Brandt - Give It Away
DYEAR=2011
DGENRE=Country
TTITLE0=Give It Away
TTITLE1=Now
TTITLE2=Together Again
TTITLE3=Worth
TTITLE4=You
TTITLE5=Start with Love
TTITLE6=I Do (Revisited)
TTITLE7=Last First Kiss
TTITLE8=My Heart Has a History (Revisited)
TTITLE9=The Highway Patrol
EXTD=YEAR: 2011
EXTT0=
EXTT1=
EXTT2=
EXTT3=
EXTT4=
EXTT5=
EXTT6=
EXTT7=
EXTT8=
EXTT9=
PLAYORDER=
